<svg width="29" height="28" viewBox="0 0 29 28" fill="none" xmlns="http://www.w3.org/2000/svg">
<path d="M21.0636 21.5476C23.4225 19.3461 24.4708 15.6768 23.8418 12.1648H14.459V16.0437H19.8056C19.596 17.3018 18.8621 18.3501 17.8137 19.0316L21.0636 21.5476Z" fill="#4285F4"/>
<path d="M5.54785 18.4549C5.63375 18.624 5.72431 18.7905 5.81954 18.9545C5.91484 19.1186 6.01466 19.2797 6.11901 19.4381C6.22342 19.5964 6.33214 19.7517 6.44531 19.9039C6.55848 20.0562 6.6758 20.205 6.79742 20.3506C6.91898 20.4961 7.04454 20.6382 7.17418 20.7766C7.30376 20.9151 7.4372 21.0498 7.57442 21.1807C7.71165 21.3116 7.85246 21.4386 7.99683 21.5616C8.14121 21.6845 8.28893 21.8033 8.44009 21.9179C8.59117 22.0326 8.74539 22.1428 8.90275 22.2487C9.0601 22.3546 9.2203 22.4559 9.38341 22.5527C9.54646 22.6496 9.71212 22.7417 9.88041 22.8292C10.0487 22.9167 10.2193 22.9994 10.3923 23.0772C10.5652 23.155 10.7402 23.2279 10.9174 23.2958C11.0944 23.3637 11.2733 23.4266 11.4539 23.4844C11.6345 23.5422 11.8166 23.5949 12.0002 23.6424C12.1839 23.69 12.3686 23.7322 12.5546 23.7694C12.7406 23.8064 12.9275 23.8382 13.1154 23.8647C13.3031 23.8912 13.4915 23.9124 13.6805 23.9282C13.8695 23.9441 14.0588 23.9546 14.2484 23.9597C14.438 23.9649 14.6276 23.9647 14.8172 23.9592C15.0067 23.9536 15.196 23.9427 15.385 23.9264C15.5739 23.9102 15.7622 23.8886 15.95 23.8617C16.1378 23.8348 16.3246 23.8025 16.5105 23.7651C16.6964 23.7276 16.8811 23.6849 17.0646 23.637C17.2481 23.5891 17.4301 23.536 17.6107 23.4778C17.7911 23.4197 17.9699 23.3564 18.1468 23.288C18.3237 23.2197 18.4986 23.1465 18.6714 23.0683C18.8442 22.9901 19.0146 22.9071 19.1827 22.8193C19.3508 22.7315 19.5163 22.6389 19.6792 22.5417C19.842 22.4445 20.002 22.3428 20.1591 22.2367C20.3162 22.1304 20.4702 22.0198 20.6211 21.9049C20.772 21.79 20.9195 21.6708 21.0636 21.5476L17.8137 19.0315C15.0355 20.8661 10.4228 20.1847 8.85017 15.8864L5.54785 18.4549Z" fill="#34A853"/>
<path d="M8.85033 15.8864C8.43099 14.5759 8.43099 13.3703 8.85033 12.0599L5.54801 9.49139C4.34241 11.9027 3.97549 15.3098 5.54801 18.4549L8.85033 15.8864Z" fill="#FBBC02"/>
<path d="M8.85017 12.0599C10.0034 8.44308 14.9307 6.34636 18.233 9.43897L21.116 6.60842C17.0274 2.67712 9.05988 2.83433 5.54785 9.4914L8.85017 12.0599Z" fill="#EA4335"/>
</svg>
